# xmcd CD database file
#
# Track frame offsets:
#	150
#	22267
#	40175
#	64085
#	82432
#	110542
#	150017
#	176740
#	202322
#
# Disc length: 3107 seconds
#
# Revision: 0
# Processed by: cddbd v1.5.1PL2 Copyright (c) Steve Scherf et al.
# Submitted via: CDex 1.51
#
DISCID=7d0c2109
DTITLE=John Ballantyne and Paul Bley - A Musing
DYEAR=1991
DGENRE=Jazz
TTITLE0=Second Conversation
TTITLE1=Zacotic
TTITLE2=If You Like
TTITLE3=Viattya
TTITLE4=Funny
TTITLE5=Alternate Vision
TTITLE6=Polka Dots and Moonbeams
TTITLE7=Question
TTITLE8=A Musing
EXTD=YEAR: 1991
EXTT0=
EXTT1=
EXTT2=
EXTT3=
EXTT4=
EXTT5=
EXTT6=
EXTT7=
EXTT8=
PLAYORDER=
